<?xml version="1.0" encoding="UTF-8"?>
<svg width="49px" height="49px" viewBox="0 0 49 49" version="1.1" xmlns="http://www.w3.org/2000/svg" xmlns:xlink="http://www.w3.org/1999/xlink">
    <!-- Generator: Sketch 49.3 (51167) - http://www.bohemiancoding.com/sketch -->
    <title>Circle button</title>
    <desc>Created with Sketch.</desc>
    <defs>
        <circle id="path-1" cx="24.5" cy="24.5" r="24.5"></circle>
        <linearGradient x1="50%" y1="100%" x2="50%" y2="0%" id="linearGradient-3">
            <stop stop-color="#FF8787" offset="0%"></stop>
            <stop stop-color="#FF55B8" offset="100%"></stop>
        </linearGradient>
        <path d="M12.6132198,6.88653309 L8.18013046,2.55383929 C7.61075914,1.99736244 7.58055212,1.06354486 8.11266118,0.468099347 C8.64477025,-0.127346167 9.53769652,-0.158936513 10.1070678,0.397540333 L16.2540045,6.4052682 C16.2715706,6.42255453 16.2715706,6.42255453 16.2889091,6.44009045 C17.2194716,7.38771191 17.2392816,8.94482704 16.3331559,9.91800443 L10.1545587,16.5538069 C9.61088326,17.1377133 8.71752526,17.1501437 8.15918773,16.5815708 C7.6008502,16.0129979 7.58896421,15.0787288 8.13263963,14.4948224 L12.4686991,9.83790215 L1.4110652,9.83790215 C0.631755411,9.83790215 0,9.17721568 0,8.36221762 C0,7.54721956 0.631755411,6.88653309 1.4110652,6.88653309 L12.6132198,6.88653309 Z" id="path-4"></path>
    </defs>
    <g id="high-fidelity" stroke="none" stroke-width="1" fill="none" fill-rule="evenodd">
        <g id="video-page" transform="translate(-163.000000, -698.000000)">
            <g id="Group" transform="translate(-2.000000, -4.000000)">
                <g id="Circle-button" transform="translate(165.000000, 702.000000)">
                    <mask id="mask-2" fill="white">
                        <use xlink:href="#path-1"></use>
                    </mask>
                    <use id="Mask" fill="#FFFFFF" xlink:href="#path-1"></use>
                    <g id="Color-Btn" mask="url(#mask-2)" fill="url(#linearGradient-3)">
                        <polygon id="Colors/Color-1-Gradient-" points="4.57518821e-13 4.67273518e-15 49 1.27950859e-13 49 49 3.88232067e-13 49"></polygon>
                    </g>
                    <g id="Icon" mask="url(#mask-2)">
                        <g transform="translate(14.000000, 14.000000)">
                            <g id="icon" stroke-width="1" fill-rule="evenodd" transform="translate(2.000000, 2.000000)">
                                <mask id="mask-5" fill="white">
                                    <use xlink:href="#path-4"></use>
                                </mask>
                                <use id="right" fill="#000000" fill-rule="nonzero" xlink:href="#path-4"></use>
                                <g id="Color" mask="url(#mask-5)" fill="#FFFFFF">
                                    <g transform="translate(-2.000000, -2.000000)" id="Colors/White">
                                        <polygon points="4.55935124e-13 2.00262306e-15 21 5.48361066e-14 21 21 4.26240801e-13 21"></polygon>
                                    </g>
                                </g>
                            </g>
                            <rect id="base" x="0" y="0" width="21" height="21"></rect>
                        </g>
                    </g>
                </g>
            </g>
        </g>
    </g>
</svg>