<?xml version="1.0" encoding="UTF-8"?>
<svg width="375px" height="104px" viewBox="0 0 375 104" version="1.1" xmlns="http://www.w3.org/2000/svg" xmlns:xlink="http://www.w3.org/1999/xlink">
    <!-- Generator: Sketch 49.3 (51167) - http://www.bohemiancoding.com/sketch -->
    <title>footer</title>
    <desc>Created with Sketch.</desc>
    <defs>
        <path d="M6,0 L369,0 C372.313708,-6.08718376e-16 375,2.6862915 375,6 L375,96 L0,96 L0,6 C-4.05812251e-16,2.6862915 2.6862915,6.08718376e-16 6,0 Z" id="path-1"></path>
        <filter x="-9.3%" y="-26.0%" width="118.7%" height="172.9%" filterUnits="objectBoundingBox" id="filter-2">
            <feOffset dx="0" dy="10" in="SourceAlpha" result="shadowOffsetOuter1"></feOffset>
            <feGaussianBlur stdDeviation="10" in="shadowOffsetOuter1" result="shadowBlurOuter1"></feGaussianBlur>
            <feColorMatrix values="0 0 0 0 0   0 0 0 0 0   0 0 0 0 0  0 0 0 0.15 0" type="matrix" in="shadowBlurOuter1"></feColorMatrix>
        </filter>
        <path d="M9.5,17 C11.9537267,17 14.1322398,15.8216701 15.5005493,14 C15.6930822,14.2563246 15.869574,14.5253867 16.0285342,14.8056958 C16.2238739,15.1501563 16.3927393,15.5116008 16.5323646,15.8872637 C14.7945387,17.7994725 12.2874685,19 9.5,19 C6.71253154,19 4.2054613,17.7994725 2.46763537,15.8872637 C2.59642183,15.5407628 2.75008487,15.2063585 2.92645415,14.8862211 C3.09689947,14.5768365 3.2885513,14.2807765 3.49945072,14 C4.86776021,15.8216701 7.04627325,17 9.5,17 Z M9.5,19 C4.25329488,19 0,14.7467051 0,9.5 C0,4.25329488 4.25329488,0 9.5,0 C14.7467051,0 19,4.25329488 19,9.5 C19,14.7467051 14.7467051,19 9.5,19 Z M7.68602455,11.2208509 C6.67525369,10.3110194 6,8.76890647 6,7.5 C6,5.56700338 7.56700338,4 9.5,4 C11.4329966,4 13,5.56700338 13,7.5 C13,8.76890647 12.3247463,10.3110194 11.3139755,11.2208509 C13.0117576,11.6425587 14.4810451,12.6427046 15.5005493,14 C16.4420828,12.7465092 17,11.1884089 17,9.5 C17,5.35786438 13.6421356,2 9.5,2 C5.35786438,2 2,5.35786438 2,9.5 C2,11.1884089 2.55791723,12.7465092 3.49945072,14 C4.51895485,12.6427046 5.98824241,11.6425587 7.68602455,11.2208509 Z" id="path-3"></path>
        <path d="M8.5,15.1550328 L5.99331534,16.8242506 C5.51199503,17.144765 4.86197958,17.014406 4.54146521,16.5330857 C4.46586774,16.4195601 4.41317892,16.292358 4.38635965,16.1586278 L3.7941812,13.2058188 L0.841372217,12.6136403 C0.27438947,12.4999334 -0.0930631482,11.9481253 0.0206438222,11.3811426 C0.0474630847,11.2474124 0.100151906,11.1202103 0.175749376,11.0066847 L1.84496724,8.5 L0.175749376,5.99331534 C-0.144764999,5.51199503 -0.0144060287,4.86197958 0.466914286,4.54146521 C0.58043992,4.46586774 0.707641988,4.41317892 0.841372217,4.38635965 L3.7941812,3.7941812 L4.38635965,0.841372217 C4.50006662,0.27438947 5.05187467,-0.0930631482 5.61885741,0.0206438222 C5.75258764,0.0474630847 5.87978971,0.100151906 5.99331534,0.175749376 L8.5,1.84496724 L11.0066847,0.175749376 C11.488005,-0.144764999 12.1380204,-0.0144060287 12.4585348,0.466914286 C12.5341323,0.58043992 12.5868211,0.707641988 12.6136403,0.841372217 L13.2058188,3.7941812 L16.1586278,4.38635965 C16.7256105,4.50006662 17.0930631,5.05187467 16.9793562,5.61885741 C16.9525369,5.75258764 16.8998481,5.87978971 16.8242506,5.99331534 L15.1550328,8.5 L16.8242506,11.0066847 C17.144765,11.488005 17.014406,12.1380204 16.5330857,12.4585348 C16.4195601,12.5341323 16.292358,12.5868211 16.1586278,12.6136403 L13.2058188,13.2058188 L12.6136403,16.1586278 C12.4999334,16.7256105 11.9481253,17.0930631 11.3811426,16.9793562 C11.2474124,16.9525369 11.1202103,16.8998481 11.0066847,16.8242506 L8.5,15.1550328 Z M8.5,11.117636 C9.94568044,11.117636 11.117636,9.94568044 11.117636,8.5 C11.117636,7.05431956 9.94568044,5.882364 8.5,5.882364 C7.05431956,5.882364 5.882364,7.05431956 5.882364,8.5 C5.882364,9.94568044 7.05431956,11.117636 8.5,11.117636 Z" id="path-5"></path>
        <path d="M6.15169507,0.393065953 C6.79269586,-0.131021984 7.70730414,-0.131021984 8.34830493,0.393065953 L13.4718808,4.58214708 C14.1226214,5.11419834 14.5,5.91755088 14.5,6.76541929 L14.5,12.7249824 C14.5,13.7012066 13.7207027,14.5 12.75,14.5 L10.75,14.5 C9.77929732,14.5 9,13.7012066 9,12.7249824 L9,11.8437876 C9,11.2011381 8.49897159,10.6875752 7.89031242,10.6875752 L6.60968758,10.6875752 C6.00102841,10.6875752 5.5,11.2011381 5.5,11.8437876 L5.5,12.7249824 C5.5,13.7012066 4.72070268,14.5 3.75,14.5 L1.75,14.5 C0.779297324,14.5 0,13.7012066 0,12.7249824 L0,6.76541929 C0,5.91755088 0.377378624,5.11419834 1.02811919,4.58214708 L6.15169507,0.393065953 Z" id="path-7"></path>
        <rect id="path-9" x="0" y="0" width="29" height="3" rx="1.5"></rect>
        <path d="M0.730268493,14.9355136 C1.10910475,14.9780347 1.49588202,15 1.88888889,15 C3.63315146,15 5.25470297,14.5673271 6.60392425,13.8251971 C7.21361257,13.9395896 7.84823974,14 8.5,14 C13.1944204,14 17,10.8659932 17,7 C17,3.13400675 13.1944204,0 8.5,0 C3.80557963,0 0,3.13400675 0,7 C0,9.31885863 1.36913785,11.3743696 3.47799854,12.6481912 C2.78970918,13.5746109 1.84715236,14.3589961 0.730268493,14.9355136 Z" id="path-11"></path>
    </defs>
    <g id="high-fidelity" stroke="none" stroke-width="1" fill="none" fill-rule="evenodd">
        <g id="home-feed" transform="translate(0.000000, -1028.000000)">
            <g id="Group-7" transform="translate(0.000000, 33.000000)">
                <g id="footer" transform="translate(0.000000, 1005.000000)">
                    <g id="Navbar/3-icons">
                        <g id="Group-5">
                            <g id="Rectangle">
                                <use fill="black" fill-opacity="1" filter="url(#filter-2)" xlink:href="#path-1"></use>
                                <use fill="#FFFFFF" fill-rule="evenodd" xlink:href="#path-1"></use>
                            </g>
                            <g id="Group-4" transform="translate(135.000000, 0.000000)">
                                <rect id="Rectangle" x="135" y="0" width="83" height="56"></rect>
                                <g id="Icon-4-Copy" transform="translate(0.000000, 18.000000)">
                                    <g id="icon" transform="translate(1.000000, 1.000000)">
                                        <mask id="mask-4" fill="white">
                                            <use xlink:href="#path-3"></use>
                                        </mask>
                                        <use id="user" fill="#000000" fill-rule="nonzero" xlink:href="#path-3"></use>
                                        <g id="Color" mask="url(#mask-4)" fill="#BBBCCD">
                                            <g transform="translate(-1.000000, -1.000000)" id="Colors/Dark-Grey">
                                                <polygon points="4.55935124e-13 2.00262306e-15 21 5.48361066e-14 21 21 4.26240801e-13 21"></polygon>
                                            </g>
                                        </g>
                                    </g>
                                    <rect id="base" x="0" y="0" width="21" height="21"></rect>
                                </g>
                            </g>
                            <g id="Group-3" transform="translate(187.000000, 0.000000)">
                                <rect id="Rectangle" x="0" y="0" width="83" height="56"></rect>
                            </g>
                            <g id="Icon" transform="translate(302.000000, 18.000000)">
                                <g id="icon" transform="translate(2.000000, 2.000000)">
                                    <mask id="mask-6" fill="white">
                                        <use xlink:href="#path-5"></use>
                                    </mask>
                                    <use id="cog" fill="#000000" xlink:href="#path-5"></use>
                                    <g id="Color" mask="url(#mask-6)" fill="#BBBCCD">
                                        <g transform="translate(-2.000000, -2.000000)" id="Colors/Black">
                                            <polygon points="4.55935124e-13 2.00262306e-15 21 5.48361066e-14 21 21 4.26240801e-13 21"></polygon>
                                        </g>
                                    </g>
                                </g>
                                <rect id="base" x="0" y="0" width="21" height="21"></rect>
                            </g>
                        </g>
                        <rect id="Path" x="0" y="0" width="375" height="56"></rect>
                        <g id="Group" transform="translate(21.000000, 0.000000)">
                            <rect id="Rectangle" x="0" y="0" width="83" height="56"></rect>
                            <g id="Icon-1" transform="translate(31.000000, 18.000000)">
                                <g id="icon" transform="translate(3.000000, 3.000000)">
                                    <mask id="mask-8" fill="white">
                                        <use xlink:href="#path-7"></use>
                                    </mask>
                                    <use id="home" fill="#000000" xlink:href="#path-7"></use>
                                    <g id="Color" mask="url(#mask-8)" fill="#FF61AB">
                                        <g transform="translate(-3.000000, -3.000000)" id="Colors/Color-1-Fill">
                                            <polygon points="4.55935124e-13 2.00262306e-15 21 5.48361066e-14 21 21 4.26240801e-13 21"></polygon>
                                        </g>
                                    </g>
                                </g>
                                <rect id="base" x="0" y="0" width="21" height="21"></rect>
                            </g>
                            <g id="Active-1" transform="translate(27.000000, 48.000000)">
                                <mask id="mask-10" fill="white">
                                    <use xlink:href="#path-9"></use>
                                </mask>
                                <use id="Mask" fill="#000000" transform="translate(14.500000, 1.500000) scale(1, -1) translate(-14.500000, -1.500000) " xlink:href="#path-9"></use>
                                <g mask="url(#mask-10)" fill="#FF61AB" id="Colors/Color-1-Fill">
                                    <polygon points="4.56387609e-13 2.86087072e-16 29 7.83372746e-15 29 3 4.15381162e-13 3"></polygon>
                                </g>
                            </g>
                        </g>
                    </g>
                    <g id="Icon" transform="translate(219.000000, 14.000000)">
                        <g id="icon" transform="translate(2.000000, 3.000000)">
                            <mask id="mask-12" fill="white">
                                <use xlink:href="#path-11"></use>
                            </mask>
                            <use id="chat" fill="#000000" xlink:href="#path-11"></use>
                            <g id="Color" mask="url(#mask-12)" fill="#BBBCCD">
                                <g transform="translate(-2.000000, -3.000000)" id="Colors/Black">
                                    <polygon points="4.55935124e-13 2.00262306e-15 21 5.48361066e-14 21 21 4.26240801e-13 21"></polygon>
                                </g>
                            </g>
                        </g>
                        <rect id="base" x="0" y="0" width="21" height="21"></rect>
                    </g>
                </g>
            </g>
        </g>
    </g>
</svg>