<?xml version="1.0" encoding="UTF-8"?>
<svg width="225px" height="358px" viewBox="0 0 225 358" version="1.1" xmlns="http://www.w3.org/2000/svg" xmlns:xlink="http://www.w3.org/1999/xlink">
    <!-- Generator: Sketch 48.2 (47327) - http://www.bohemiancoding.com/sketch -->
    <title>Group</title>
    <desc>Created with Sketch.</desc>
    <defs></defs>
    <g id="Page-1" stroke="none" stroke-width="1" fill="none" fill-rule="evenodd">
        <g id="climbing" transform="translate(-164.000000, -11.000000)" fill="#000000">
            <g id="Group" transform="translate(164.000000, 10.000000)">
                <path d="M221.461,148.269 L180.16,102.913 C176.453,98.843 171.617,95.972 166.27,94.663 L140.57,88.374 L110.059,60.116 L104.75,12.534 C103.949,5.398 97.621,0.245 90.367,1.054 C83.227,1.847 78.078,8.284 78.879,15.429 L84.738,67.823 C85.09,70.921 86.539,73.8 88.828,75.921 L133.172,116.999 L114.992,192.222 L66.984,191.066 C61.457,190.851 55.828,193.284 52.027,197.495 L5.27,249.288 C-1.961,257.296 -1.324,269.632 6.68,276.855 C14.645,284.077 27.023,283.444 34.242,275.452 L75.004,230.304 L108.066,231.097 L88.652,258.804 C85.664,263.062 84.508,268.335 85.422,273.456 L97.848,342.659 C99.551,352.097 107.773,358.733 117.039,358.733 C118.18,358.733 119.352,358.632 120.504,358.421 C131.117,356.515 138.18,346.366 136.277,335.757 L125.281,274.554 L160.938,223.663 C162.234,221.816 163.281,219.831 163.809,217.71 C168.43,199.187 181.738,143.53 181.738,143.53 L198.02,161.218 L190.152,208.441 C188.969,215.526 193.762,222.23 200.852,223.409 C201.574,223.53 202.289,223.589 203,223.589 C209.254,223.589 214.766,219.077 215.82,212.714 L224.73,159.218 C225.391,155.265 224.18,151.222 221.461,148.269 Z" id="Fill-1"></path>
                <path d="M153.848,82.452 C167.535,91.741 186.191,88.159 195.488,74.441 C204.777,60.737 201.195,42.089 187.484,32.796 C173.762,23.499 155.133,27.089 145.832,40.792 C136.555,54.511 140.125,73.151 153.848,82.452 Z" id="Fill-3"></path>
            </g>
        </g>
    </g>
</svg>