<?xml version="1.0" encoding="UTF-8"?>
<svg width="47px" height="45px" viewBox="0 0 47 45" version="1.1" xmlns="http://www.w3.org/2000/svg" xmlns:xlink="http://www.w3.org/1999/xlink">
    <!-- Generator: Sketch 48.2 (47327) - http://www.bohemiancoding.com/sketch -->
    <title>Shape</title>
    <desc>Created with Sketch.</desc>
    <defs></defs>
    <g id="Page-1" stroke="none" stroke-width="1" fill="none" fill-rule="evenodd">
        <g id="passage-of-time" fill="#000000" fill-rule="nonzero">
            <path d="M46.907,19.12 C46.744,18.773 46.396,18.551 46.011,18.551 L43.084,18.551 C41.223,8.452 32.355,0.775 21.726,0.775 C9.747,0.775 0,10.522 0,22.501 C0,34.48 9.746,44.226 21.726,44.226 C29.457,44.226 36.667,40.065 40.542,33.369 C41.088,32.424 40.766,31.217 39.82,30.67 C38.876,30.123 37.668,30.445 37.123,31.39 C33.951,36.871 28.051,40.277 21.726,40.277 C11.925,40.277 3.95,32.303 3.95,22.503 C3.95,12.701 11.925,4.727 21.726,4.727 C30.168,4.727 37.241,10.648 39.043,18.552 L36.139,18.552 C35.754,18.552 35.407,18.774 35.243,19.121 C35.08,19.468 35.133,19.877 35.379,20.172 L40.317,26.097 C40.505,26.322 40.782,26.452 41.076,26.452 C41.369,26.452 41.647,26.321 41.834,26.097 L46.772,20.172 C47.018,19.876 47.07,19.467 46.907,19.12 Z" id="Shape"></path>
        </g>
    </g>
</svg>