<?xml version="1.0" encoding="UTF-8"?>
<svg width="15px" height="25px" viewBox="0 0 15 25" version="1.1" xmlns="http://www.w3.org/2000/svg" xmlns:xlink="http://www.w3.org/1999/xlink">
    <!-- Generator: Sketch 48.2 (47327) - http://www.bohemiancoding.com/sketch -->
    <title>Shape</title>
    <desc>Created with Sketch.</desc>
    <defs></defs>
    <g id="Page-1" stroke="none" stroke-width="1" fill="none" fill-rule="evenodd">
        <g id="passage-of-time" transform="translate(-18.000000, -5.000000)" fill="#000000" fill-rule="nonzero">
            <path d="M21.726,5.713 C20.635,5.713 19.751,6.597 19.751,7.688 L19.751,19.672 C18.858,20.298 18.27,21.33 18.27,22.502 C18.27,24.408 19.821,25.959 21.727,25.959 C22.249,25.959 22.741,25.834 23.185,25.625 L30.055,29.59 C30.367,29.771 30.705,29.856 31.041,29.856 C31.723,29.856 32.387,29.502 32.753,28.868 C33.298,27.925 32.975,26.716 32.029,26.171 L25.152,22.2 C25.06,21.156 24.517,20.244 23.703,19.674 L23.703,7.688 C23.701,6.598 22.816,5.713 21.726,5.713 Z M21.726,23.982 C20.909,23.982 20.245,23.317 20.245,22.502 C20.245,21.686 20.91,21.021 21.726,21.021 C22.542,21.021 23.207,21.686 23.207,22.502 C23.207,23.317 22.542,23.982 21.726,23.982 Z" id="Shape"></path>
        </g>
    </g>
</svg>