<?xml version="1.0" encoding="UTF-8"?>
<svg width="109px" height="116px" viewBox="0 0 109 116" version="1.1" xmlns="http://www.w3.org/2000/svg" xmlns:xlink="http://www.w3.org/1999/xlink">
    <!-- Generator: Sketch 48.2 (47327) - http://www.bohemiancoding.com/sketch -->
    <title>Shape</title>
    <desc>Created with Sketch.</desc>
    <defs></defs>
    <g id="Page-1" stroke="none" stroke-width="1" fill="none" fill-rule="evenodd">
        <g id="Hearts" transform="translate(-326.000000, -385.000000)" fill="#DB0029" fill-rule="nonzero">
            <path d="M367.48,397.82 L367.03,397.6 L367.3,397.66 L366.36,396.79 L365.9,396.54 C365.968751,396.558703 366.041249,396.558703 366.11,396.54 C366.01,396.44 365.9,396.37 365.8,396.28 C365.051605,396.117488 364.318823,395.889958 363.61,395.6 C362.972592,395.415143 362.32479,395.268219 361.67,395.16 C361.23,395.01 360.73,394.97 360.28,394.85 C359.877722,394.757315 359.480522,394.643829 359.09,394.51 C359.69,394.7 360.49,394.9 360.34,394.58 C359.25,393.89 358.66,393.08 356.27,393.31 L356.49,393.31 L356.95,393.4 L357.61,393.52 L357.12,393.58 C356.761413,393.603355 356.406196,393.663675 356.06,393.76 L354.57,394.16 C353.57,393.71 356.04,393.76 356.51,393.44 C355.952867,393.520137 355.387133,393.520137 354.83,393.44 C354.3,393.38 353.83,393.23 353.34,393.23 C352.42,393.17 351.62,393.1 351.15,393.6 C350.92,393.15 350.52,392.41 348.92,392.83 C350.2,393.1 348.08,393.39 349.17,393.75 C348.72,394.1 347.48,394.18 347.52,394.53 L347.58,394.29 C346.563695,394.299642 345.60116,394.748095 344.94,395.52 C344.559992,396.043839 344.225441,396.599193 343.94,397.18 C342.71,398.1 341.94,398.92 341.07,399.57 C340.68,399.94 340.33,400.32 339.95,400.71 C339.523342,401.115677 339.144236,401.568591 338.82,402.06 C338.026468,401.881997 337.204165,402.202221 336.74,402.87 C336.85,403.55 335.74,405.67 336.18,406.18 C337.27,404.67 336.54,404.64 337.01,403.58 C338.01,403.12 337.52,403.81 338.56,403.01 C337.939812,403.708442 337.424426,404.493311 337.03,405.34 C336.642077,406.232893 336.111855,407.056932 335.46,407.78 L335.57,407.39 C335.051896,407.962179 334.493826,408.496856 333.9,408.99 C333.593942,409.291565 333.352384,409.652201 333.19,410.05 C332.991821,410.647295 332.883965,411.270841 332.87,411.9 C332.87,411.9 332.87,412.28 332.87,412.65 L332.87,413.4 C332.83063,413.337613 332.77972,413.283309 332.72,413.24 C332.11,415.54 331.63,414.81 331.72,417.5 C331.72,417.29 331.64,417.41 331.63,417.2 C331.15,418.68 331.63,420.28 331.78,421.42 C331.29,422.11 331.32,421.24 330.99,420.79 C330.822239,423.262349 331.308547,425.735279 332.4,427.96 C332.4,427.96 332.4,428.39 332.4,428.82 L332.4,429.69 C332.233791,429.198342 332.015906,428.725698 331.75,428.28 C331.53,427.9 331.32,427.68 331.19,427.85 C331.36,428.8 331.59,428.58 331.67,429.94 C331.225094,429.557682 330.83776,429.113089 330.52,428.62 C330.4,431.52 331.66,429.1 331.02,431.2 C331.17,432.09 331.7,432.51 332.08,432.54 C332.08,432.54 332.08,432.95 331.99,433.37 C331.9,433.79 331.93,434.2 331.93,434.2 C332.44,434.27 332.87,436.2 333.34,437.4 C333.58,437.49 333.51,436.28 333.23,435.85 C333.58,435.85 334.15,437.1 334.38,437.93 C333.93,438.24 334.44,439.58 334.87,440.77 C335.3,441.96 335.75,442.95 335.01,442.69 C335.88,444.48 337.01,446.56 338.19,448.44 C338.81,449.35 339.37,450.25 339.95,450.99 C340.436089,451.637669 340.956849,452.258576 341.51,452.85 C341.79,453.69 342.82,455.11 341.84,454.54 C343.84,457.07 345.61,457.63 347.64,460.02 C347.73,460.29 346.64,459.02 346.48,459.32 C348.19,460.51 348.85,462.27 351.48,464.21 C351.280877,463.989202 350.983726,463.883882 350.69,463.93 C350.75,463.78 351.9,464.56 352.64,464.98 C352.94,465.35 352.09,464.66 352.21,464.93 C356.62,469.37 361.35,471.26 365.64,476.18 C364.44,474.76 363.45,474.76 363.26,474.91 C363.26,474.91 363.56,475.24 363.87,475.56 L364.47,476.21 C365.354812,476.811029 366.172798,477.504976 366.91,478.28 C366.91,478.47 367.13,478.98 366.67,478.63 C367.426378,479.994573 368.395168,481.230034 369.54,482.29 C370.091194,482.886634 370.611859,483.510765 371.1,484.16 C371.633543,484.984977 372.072952,485.867149 372.41,486.79 L370.7,484.64 C369.8,483.64 368.88,482.64 368.87,482.64 L369.1,483.98 L368.3,483.15 C368.120457,482.95613 367.930157,482.772507 367.73,482.6 L367.46,482.36 C367.88,483.64 369.1,484.28 368.76,484.64 C368.51,484.46 368.22,483.86 367.98,483.97 C368.41,485.16 368.82,485.05 369.29,485.88 C368.743034,485.338216 368.22562,484.76739 367.74,484.17 C367.23,483.49 366.63,482.79 366.07,482.07 C365.058301,480.757372 363.959135,479.514546 362.78,478.35 C362.46,478.09 363.18,478.45 363.31,478.44 C362.730194,477.595845 362.059514,476.817856 361.31,476.12 C360.44,475.81 361.53,476.8 361.95,477.31 C361.61,477.49 361.41,477.24 360.86,476.75 C361.14,476.26 358.1,473.81 357.76,472.75 C354.63,470.22 357.42,474.12 354.59,471.4 L354.06,470.21 C351.708157,468.928745 349.524743,467.360046 347.56,465.54 L348,465.9 C348.43,465.97 348.07,465.45 347.95,465.18 C346.62,463.66 344.84,462.87 344.37,461.59 C341.849546,459.901332 339.56601,457.88348 337.58,455.59 C337.74,454.59 340.18,458.09 341.3,458.59 L340.52,457.65 L339.99,457 L339.76,456.7 C340.376753,457.540694 341.219384,458.189138 342.19,458.57 C341.713055,457.895866 341.128607,457.304661 340.46,456.82 C339.810457,456.334018 339.207828,455.788305 338.66,455.19 C338.93,455.19 338.84,454.93 338.33,454.19 L337.78,454.19 C337.78,454.19 337.78,454.05 337.64,453.79 L336.4,452.38 L335.4,450.9 C335.61,451.67 335.26,451.9 335.74,452.74 C335.81,452.3 336.26,452.96 336.79,453.74 C336.07,453.23 337.08,454.66 336.85,454.79 L333.85,450.19 L334.06,449.62 C333.29,447.98 332.28,446.35 331.89,445.18 L332.27,445.43 C331.91,444.43 331.47,443.43 331.09,442.43 C330.726372,441.4873 330.481165,440.503109 330.36,439.5 C329.3,437.83 328.27,435.56 327.43,434.09 C327.09,433.72 326.93,432.27 326.89,430.64 C326.932519,429.124809 326.733356,427.61252 326.3,426.16 C326.628728,426.880634 326.909342,427.622259 327.14,428.38 C327.14,426.92 326.28,425.79 326.9,425.3 C326.9,428.59 327.36,425.1 327.64,426.55 C327.57786,425.249738 327.417402,423.956043 327.16,422.68 C327.21,425.17 326.29,421.8 326.62,424.33 C326.007182,422.029017 325.918334,419.619872 326.36,417.28 C326.62,417.33 326.75,417.06 327,416.17 L326.73,415.39 C326.97,414.27 326.85,417.64 327.33,415.39 C327.308971,413.85963 327.566496,412.338199 328.09,410.9 C328.6,409.38 328.98,408 328.65,407.31 C329.22,406.56 329,407.4 328.85,408.13 C328.7,408.86 328.69,409.51 329.39,408.35 C329.3,409.95 328.19,411.84 328.7,412.5 C328.89,411 329.29,412.09 329.58,411.18 L329.73,409.49 L329.59,409.83 C329.59,409.48 329.69,409.1 329.77,408.7 C329.85,408.3 330,407.92 330.13,407.5 C330.395745,406.621784 330.730108,405.765815 331.13,404.94 C331.977141,403.198694 332.960184,401.526853 334.07,399.94 C334.4,399.23 334.7,398.55 335,397.88 C335.3,397.21 335.69,396.62 336.07,395.99 C336.256642,395.660707 336.463713,395.34342 336.69,395.04 C336.93,394.74 337.19,394.44 337.47,394.13 C338.051861,393.439109 338.724647,392.830238 339.47,392.32 C338.73,393.32 342.37,390.68 340.7,392.66 C341.102067,392.474383 341.486904,392.25352 341.85,392 C342.195781,391.817813 342.529772,391.614078 342.85,391.39 C343.4,390.99 343.74,390.63 343.7,390.5 C342.22,391.19 343.15,390.69 341.88,391.24 C342.861024,390.313546 344.079333,389.676702 345.4,389.4 C345.01,389.53 345.18,389.53 345.13,389.65 C347.05,389.15 345.9,389 347.22,388.38 C347.876624,388.471186 348.545557,388.402577 349.17,388.18 C349.62,388.09 350.08,387.96 350.52,387.9 C350.919487,387.871358 351.320513,387.871358 351.72,387.9 L352.65,387.5 L353.6,387.11 C353.07,387.38 353.54,387.31 354.16,387.4 C354.78,387.49 355.58,387.53 355.72,387.73 C357.226404,387.323589 358.813596,387.323589 360.32,387.73 C359.87,387.73 360.32,387.92 360.86,388.14 C361.4,388.36 362.06,388.78 362.01,388.99 C363.456397,389.607163 364.943176,390.12503 366.46,390.54 C367.871343,390.941516 369.155778,391.699091 370.19,392.74 C370.05,392.74 369.38,392.62 370.05,393.24 C370.825838,393.707583 371.558706,394.243011 372.24,394.84 C372.53,395.06 372.74,395.17 372.81,395.1 C374.296775,395.588015 375.685016,396.336311 376.91,397.31 C377.12,396.84 375.45,395.44 374.65,394.92 L373.71,394.74 C373.59,393.67 371.88,393.3 371.52,392.74 C372.46,392.86 373.67,393.74 375.03,394.74 C376.39,395.74 377.65,396.97 378.71,397.74 C378.16,396.07 375.63,393.45 373.03,391.46 C373.03,391.46 373.94,392.6 373.94,392.6 L373.3,392.05 C372.98,391.78 372.62,391.53 372.62,391.53 C372.62,391.53 372.89,391.88 373.11,392.24 C373.33,392.6 373.56,392.97 373.56,392.97 C373.017444,392.437427 372.424689,391.958534 371.79,391.54 L370.01,390.27 C371.43,391.27 371.53,392.21 370.83,391.55 C370.465979,391.00769 369.919589,390.613864 369.29,390.44 C368.755888,390.344509 368.243983,390.151273 367.78,389.87 C368.46,390.34 369.36,390.87 368.63,390.78 C368.175239,390.351469 367.697891,389.947559 367.2,389.57 C366.799311,389.280027 366.378217,389.01935 365.94,388.79 C365.1,388.34 364.39,387.84 363.03,387.09 C363.03,387.53 362.19,387.25 361.22,386.94 C360.25,386.63 359.22,386.52 358.98,386.81 L360.21,387.12 L357.5,387.12 C356.31,386.65 356.86,386.56 357.28,386.43 C357.7,386.3 357.97,386.19 356.01,385.85 C355.297933,385.789888 354.582067,385.789888 353.87,385.85 C353.407177,385.915354 352.953911,386.036225 352.52,386.21 C351.604569,386.556704 350.66112,386.824349 349.7,387.01 C350.342202,386.563023 351.071371,386.256363 351.84,386.11 C352.32,385.99 352.84,385.88 353.41,385.79 C353.978898,385.739867 354.551102,385.739867 355.12,385.79 L353.72,385.49 C355.575665,385.27854 357.454023,385.393611 359.27,385.83 C356.62,385.91 360.45,386.18 361.5,386.93 C361.85,386.55 360.12,386.09 362.24,386.36 C361.56358,386.13898 360.871676,385.968511 360.17,385.85 C359.59,385.72 358.94,385.56 357.78,385.26 C359.423031,385.605778 361.102057,385.750175 362.78,385.69 C363.450773,385.676698 364.121095,385.733675 364.78,385.86 C365.671965,386.098546 366.521911,386.472927 367.3,386.97 C365.25,386.21 367.69,387.9 367.77,388.22 L371,389.93 L370.92,389.45 C370.87,389.21 370.8,388.97 370.8,388.97 C373.03,390.21 372.86,391.82 375.35,393.09 C375.89,393.03 373.6,391.4 374.03,391.67 C375.27733,392.453579 376.330468,393.510137 377.11,394.76 C377.44,395.28 377.73,395.81 378.11,396.37 C378.49,396.93 378.75,397.55 379.19,398.22 C379.726419,398.030136 380.322706,398.128259 380.77,398.48 C380.23,398.48 380.63,399.23 379.57,398.48 C380.242535,399.326902 381.018586,400.086155 381.88,400.74 C380.66,398.91 382.88,401.05 383.35,401.23 C383.98,402.17 382.83,401.23 382.28,400.75 C382.8,401.51 382.95,402.75 383.74,402.75 C383.59,402.89 382.98,402.56 382.29,402.05 C381.527809,401.518349 380.814942,400.919272 380.16,400.26 L380.83,401.17 C380.272615,400.77636 379.805566,400.268401 379.46,399.68 C379.92,400.68 379.56,400.87 379.17,400.88 C379.17,400.73 379.3,400.88 379.26,400.73 C378.78,399.98 378.2,399.57 378.18,399.87 C377.18,399.66 378.75,401 378.89,401.66 L379.83,402.61 C379.83,402.61 380.92,403.18 381.96,403.82 L383.42,404.69 C383.82,404.93 384.07,405.1 384.07,405.1 C385.001682,406.22729 385.683381,407.539561 386.07,408.95 L386.7,409.03 C387.6,410.49 388.25,411.98 387.17,411.35 C387.28,411.21 387.17,411.04 386.96,410.71 C386.866792,410.689111 386.780631,410.644307 386.71,410.58 L386.59,410.58 C387.13,411.31 387.59,411.92 387.86,412.35 L387.97,412.5 L388.03,412.55 L388.09,412.55 C387.91,412.6 387.45,412.09 387.28,412.07 C387.11,412.05 387.01,412.07 386.98,412.28 C386.963377,412.495002 386.933318,412.708752 386.89,412.92 C386.89,413.15 386.68,413.21 386.48,413.28 C386.48,413.28 386.73,413.55 386.96,413.85 L387.41,414.4 C387.2,413.4 387.71,414.07 387.91,414.18 C387.63,414.7 388.38,415.13 388.51,415.59 L388.45,415.68 C388.538085,416.158769 388.700016,416.620947 388.93,417.05 C388.98,417.14 389.03,417.21 389.07,417.27 C389.126752,417.102793 389.19354,416.939162 389.27,416.78 C389.27,416.72 389.36,416.52 389.41,416.39 C389.612692,415.832733 389.78626,415.2653 389.93,414.69 C389.55,414.76 389.86,414.19 389.93,413.69 C389.93,413.69 390.02,413.69 390.03,413.56 C390.04,413.43 390.03,413.31 390.03,413.04 L389.96,413.19 C389.96,413.25 389.9,413.29 389.89,413.27 L389.8,413.27 C389.68,413.27 389.5,413.27 389.22,413.72 C389.15,414.29 389.47,413.6 389.45,414.05 C389.16,414.45 389.02,413.88 388.79,413.4 C388.79,413.4 388.79,413.27 388.88,413.13 L388.98,412.87 L388.6,412.63 C388.85,412.63 389.12,412.23 389.33,412.48 C389.57,412.09 389.12,412.25 389.1,411.94 L388.86,412.06 L388.61,412.17 C388.665478,412.136292 388.710488,412.087819 388.74,412.03 L388.74,411.94 C388.721623,411.842204 388.698259,411.745411 388.67,411.65 C388.61,411.45 388.58,411.3 388.67,411.28 C388.76,411.26 388.76,411.28 388.86,411.37 L389.02,411.52 L389.12,411.62 C389.12,411.67 389.2,411.71 389.2,411.69 C389.366321,411.705183 389.533679,411.705183 389.7,411.69 C389.7,411.69 389.93,411.34 389.94,411.34 C389.979494,411.349001 390.020506,411.349001 390.06,411.34 L389.88,411.58 C390.19,411.4 389.36,412.94 389.88,412.58 L390.03,412.14 C390.17,411.72 390.19,411.61 390.27,411.73 C390.17,412.05 390.27,412.46 390.14,413.1 C390.35,413.3 390.43,412.42 390.43,412.04 C390.52,412.45 390.64,412.75 390.43,412.89 C390.43,413.41 390.53,413.28 390.61,413.16 C390.69,413.04 390.75,412.92 390.87,413.34 C391.25043,412.847853 391.27457,412.167887 390.93,411.65 C390.93,411.6 390.93,411.52 390.82,411.51 C390.880775,411.355865 390.950906,411.205586 391.03,411.06 C391.234808,410.707582 391.468971,410.373063 391.73,410.06 C392.593161,409.038545 393.604366,408.152055 394.73,407.43 L394.73,407.84 C396.184227,406.393005 397.821442,405.142401 399.6,404.12 C401.598493,402.915036 403.737978,401.961168 405.97,401.28 L406.68,401.28 C407.717695,401.233162 408.757458,401.266595 409.79,401.38 L410.49,401.47 C409.49,401.56 407.02,402.54 408.26,402.73 C406.11,402.26 404.08,403.22 402.08,403.73 C401.98,404 402.8,403.73 403.18,403.73 C402.083169,404.049489 401.036376,404.520714 400.07,405.13 C400.2,405.22 401.77,404.54 400.71,405.26 L399.71,405.61 C399.2,405.79 398.71,405.98 398.71,405.98 C396.71,407.76 398.3,407.66 395.93,409.39 C396.119568,408.355608 396.630454,407.407319 397.39,406.68 C396.19,407.48 398.77,405.31 397.57,405.9 C396.3,407.66 395.23,407.9 393.68,409.9 C393.793706,409.574339 393.982064,409.279816 394.23,409.04 L393.77,409.4 C393.51,409.62 393.16,409.91 392.82,410.21 L391.49,411.37 C391.7,411.28 391.7,411.37 391.6,411.59 L391.37,411.96 L391.22,412.18 C391.27,412.18 391.22,412.18 391.22,412.18 C391.193837,412.404026 391.254691,412.629546 391.39,412.81 L391.61,412.66 L391.69,412.6 L391.87,412.42 L392.68,411.56 C393.528194,410.653062 394.45516,409.823144 395.45,409.08 C394.609592,410.021202 394.021296,411.159952 393.74,412.39 C393.669331,412.416995 393.604743,412.457788 393.55,412.51 C393.5,413.35 394.05,412.99 394.73,413.66 C395.56,411.86 396.84,411.36 398.37,409.58 C398.37,408.89 396.87,409.94 396.14,410.82 C396.14,410.82 396.44,410.41 396.78,410.01 C397.12,409.61 397.45,409.2 397.45,409.2 L397.29,409.65 C397.29,409.65 398.29,408.82 399.45,408.04 C400.61,407.26 401.83,406.59 401.83,406.59 C401.237546,406.949573 400.767118,407.47924 400.48,408.11 C401.105082,407.73002 401.777546,407.434136 402.48,407.23 C402.09,406.88 402,406.52 402.65,406.18 C404.026266,405.488399 405.517511,405.054583 407.05,404.9 C408.013806,404.806939 408.986483,404.908968 409.91,405.2 L410.4,405.12 C410.07,404.89 410.73,404.58 411.68,404.41 C412.178375,404.305935 412.68265,404.232464 413.19,404.19 C413.7,404.13 414.19,404.09 414.49,404.04 C414.41,404.29 414.9,404.46 415.49,404.68 C416.121284,404.869832 416.726068,405.138625 417.29,405.48 C418.02,405.15 417.7,404.03 416.41,403.13 C415.707395,402.976696 414.977084,403.0077 414.29,403.22 C413.983529,403.464411 413.647565,403.669349 413.29,403.83 C412.548822,403.810538 411.807171,403.840605 411.07,403.92 C410.52,403.98 409.98,404.09 409.57,404.16 C409.16,404.23 408.91,404.32 408.91,404.32 L409.36,404.02 L409.84,403.74 C408.840428,403.740525 407.848708,403.91653 406.91,404.26 C406.17,404.5 405.73,404.67 405.7,404.34 C406.7,403.54 408.7,403.42 409.87,402.95 C409.611134,402.91882 409.350728,402.902127 409.09,402.9 L408.3,402.9 C408.953634,402.522879 409.740358,402.453354 410.45,402.71 C411.276472,402.98751 412.1539,403.079691 413.02,402.98 C411.86,402.33 413.33,402.92 414.76,402.86 C414.342098,402.657059 413.892037,402.52847 413.43,402.48 C412.807936,402.379011 412.179925,402.318883 411.55,402.3 C410.33,402.21 409.35,402.3 409.84,401.74 C411.190906,401.566384 412.56377,401.724263 413.84,402.2 C415.163424,402.712929 416.548691,403.049159 417.96,403.2 L417.82,403.2 C419.27,403.77 420.42,404.37 421.3,404.67 C422.18,404.97 422.79,405.25 423.43,405.52 C423.94,406.1 424.68,406.63 425.3,407.22 C425.959738,407.748875 426.575122,408.330814 427.14,408.96 L426.92,409.09 L428.24,410.7 C427.24,410.18 426.89,408.7 425.45,407.4 L425.26,407.91 C425.027716,407.460781 424.719895,407.054864 424.35,406.71 C423.98309,406.421191 423.583721,406.176199 423.16,405.98 C422.358318,405.620627 421.520107,405.349047 420.66,405.17 C420.96,405.28 421.29,405.42 421.66,405.58 C422.03,405.74 422.27,405.99 422.58,406.22 C423.211851,406.658205 423.810174,407.14288 424.37,407.67 C425.37,408.67 426.3,409.49 426.8,409.42 L427.24,410.85 L427.78,411.29 C428.04,412.34 426.99,411.77 425.73,410.29 C425.63,409.95 425.57,409.77 425.73,409.79 C425.35,409.5 424.91,409.27 424.41,408.9 C423.91,408.53 423.41,408.01 422.41,407.25 L422.98,407.54 L423.55,407.85 C422.551317,406.915635 421.410404,406.146025 420.17,405.57 C419.68964,405.347891 419.195249,405.157484 418.69,405 C418.362466,404.923695 418.025896,404.893403 417.69,404.91 C418.618555,405.350537 419.517158,405.851617 420.38,406.41 C420.822708,406.66729 421.238169,406.968835 421.62,407.31 L422.77,408.31 C423.49,408.97 424.1,409.69 424.77,410.38 C425.44,411.07 425.85,411.82 426.38,412.54 C427.83,412.8 429.02,413.6 430.21,413.62 C431.596308,415.779531 432.528564,418.198633 432.95,420.73 L432.7,420.61 C432.850675,421.467548 433.085131,422.308243 433.4,423.12 C433.4,424.12 432.71,422.58 432.73,423.29 C432.73,423.29 433.01,424.04 433.25,424.8 C433.49,425.56 433.7,426.32 433.7,426.32 C433.45,426.26 433.21,425.58 433,424.77 C432.79,423.96 432.51,423.01 432.35,422.4 C432.45,422.62 432.63,423.07 432.66,422.91 C432.485278,421.998009 432.189319,421.113495 431.78,420.28 C431.43,419.38 431.09,418.58 431.28,418.15 C430.91,417.48 432.28,419.41 431.42,417 C431.02,415.29 430.14,415 429.9,414.94 C429.67,415.03 430.7,417.56 430.03,416.82 C430.5,418.01 431.03,418.39 431.32,420.03 C431.070867,419.367188 430.762975,418.727977 430.4,418.12 C430.09538,417.657075 429.916199,417.122976 429.88,416.57 C428.32,414.4 427.4,415.35 427.82,416.42 C427.92,416.21 428.57,417.18 428.93,417.83 C429.29,418.48 429.61,418.83 429.26,417.18 C429.844384,417.961253 430.331312,418.810858 430.71,419.71 L431.91,422.66 L431.79,422.61 L432.13,423.73 C432.3,424.29 432.45,424.85 432.45,424.85 C432.26,424.56 431.97,423.9 431.71,423.94 C431.71,423.94 432.09,424.68 432.39,425.43 L433.03,426.95 C432.24,425.25 432.91,428.11 432.77,428.95 C433.21,429.23 433.67,430.44 433.77,429.22 C433.88,427.84 433.45,428.47 433.25,427.22 L434.12,428.87 L434.12,429.03 L434.45,429.52 L434.77,430.02 C434.94,432.42 433.47,429.1 434.24,432.1 L434.92,431.65 C434.973121,433.570999 434.879516,435.493251 434.64,437.4 C434.53,438.4 434.42,439.3 434.32,440.15 C434.215376,440.919396 434.151952,441.693834 434.13,442.47 C433.83,441.7 433.21,441.33 432.71,442.23 C432.870975,441.491736 432.981233,440.743321 433.04,439.99 C433.09,439.12 433.11,438.2 433.11,437.43 C433.23,437.13 433.92,439.37 433.56,441.12 C434.87,440.33 433.13,436.79 434.27,436.64 C434.492664,435.412694 434.350102,434.147022 433.86,433 C433.426586,432.020634 433.297671,430.933572 433.49,429.88 C432.96,429.88 433.1,428.88 432.61,428.78 C431.96,429.91 433.14,433.48 432.84,435.78 C432.84,435.56 432.73,435.1 432.62,435.02 C432.502732,436.179764 432.53972,437.349957 432.73,438.5 L432.8,438.36 C433.21,440.43 432.34,439.6 432,440.77 C432,441.01 431.95,441.54 431.92,441.99 C431.89,442.44 431.87,442.78 432.08,442.67 L431.66,443.67 C431.45,444.19 431.22,444.67 431.22,444.67 L431.82,444.67 C431.59,445.88 431.15,446.05 431.25,447.21 L431.75,447.4 C431.75,447.4 431.96,446.66 432.18,445.92 L432.48,444.92 C432.526487,444.765795 432.563226,444.608818 432.59,444.45 C432.45,446.03 433,444.98 432.73,446.71 C432.59,444.71 432.17,447.99 431.59,448.02 L431.53,449.3 L431.53,448.95 C430.99,449.82 431.39,450.14 430.94,451.19 C431.78271,450.122762 432.284497,448.82648 432.38,447.47 C432.332259,448.300722 432.242142,449.128466 432.11,449.95 C432.009432,450.597179 431.872549,451.238191 431.7,451.87 C431.48,453.22 430.7,453.87 430.23,455.03 C430.57,453.89 430.12,453.94 429.85,453.74 C429.58,453.54 429.54,453.12 430.46,450.98 C430.53,451.09 430.38,451.44 430.28,451.56 C430.7,451.38 430.92,450.71 431.04,449.95 C431.16,449.19 431.12,448.35 431.14,447.83 C430.69,447.97 430.89,446.94 430.19,448.59 C430.6,448.09 430.61,450.3 429.72,451.79 L429.04,451.23 C429.04,451.23 428.83,451.8 428.58,452.35 L428.08,453.44 L428.13,453.22 C427.32,453.86 427.24,455.62 426.25,456.97 C426.03,458.18 423.68,462.03 425.36,460.74 C424.21,461.74 424.13,463.2 423.42,464.63 L424.07,463.86 L424.72,463.09 C424.04,465.44 424.05,464.63 423.87,466.75 C423.57,466.75 423.2,467.05 423.2,466.6 C421.49,469.26 418.79,472.77 418.3,474.6 C417.02,476.35 416.03,476.06 414.59,478.71 C414.46,479 414.69,479.01 414.78,479.14 C414.87,479.27 414.87,479.48 414.1,480.26 C413.96,480.33 414.87,478.26 413.46,480.18 C412.92,481.89 410.74,483.06 409.79,485.09 C408.84,485.77 407.56,487.27 407.47,486.63 C408.177415,485.969972 408.845244,485.268752 409.47,484.53 C409.881516,484.049709 410.218605,483.510366 410.47,482.93 C410.55,483.32 411.47,482.1 410.85,483.3 C412.85,481.38 411.72,481.71 413.46,479.93 C413.4,479.68 412.22,480.59 412.04,481.11 C411.77,480.9 412.45,479.91 412.95,479.11 C413.45,478.31 413.68,477.75 412.75,478.34 C411.11,480.34 411.75,481.82 409.75,483.14 C409.99,482.14 411.15,481.28 411.29,479.94 L409.93,481.21 L409.48,482.56 L409.48,482.44 C408.635227,483.054971 407.983114,483.897861 407.6,484.87 C407.34207,485.826565 406.911682,486.728008 406.33,487.53 C407.83,486.63 406.93,488.64 408.02,487.91 C406.73,489.41 405.67,490.4 405.18,489.91 C407.27,486.85 404.81,489.24 406.6,486.32 C406.04,486.55 406.4,485.06 405,486.45 C403.83,488.45 405.87,486.36 404.51,488.14 C404.37,488.19 404.24,488.25 404.22,488.14 C403.77,489.14 403.28,488.88 402.68,490.02 L402.8,489.72 C401.41,490.46 401.93,491.2 400.67,491.77 C401.4,491.77 400.33,492.68 399.96,493.47 C401.05,492.7 402.07,492.74 403.96,490.89 C403.9,490.39 403.61,490.36 404.25,489.48 L403.05,490.69 C403.27,490.38 403.4,490.12 403.59,489.83 L404.25,489.34 C404.58,489.1 404.9,488.82 404.9,488.82 C403.64,490.51 404.61,490.12 404.27,491.05 C402.77,492.24 403.21,492.21 402.27,492.95 C402.11,492.69 401.27,493.14 400.27,493.8 C399.27,494.46 398.01,495.26 397.09,495.8 C397.36,495.6 397.67,495.3 397.85,495.16 C398.76,493.84 396.72,495.51 396.57,495.42 L395.92,496.42 C396.06,496.25 396.18,495.95 395.77,496.21 C394.7,497.31 395.15,497.71 394.1,498.79 C393.79,498.62 394.42,497.4 393.6,497.9 C392.399789,497.977346 391.298083,498.590629 390.6,499.57 C390.403639,499.948419 390.139223,500.287413 389.82,500.57 C389.869979,500.511479 389.91356,500.447784 389.95,500.38 L388.71,501 C389.19,499.83 390.61,499.67 391.09,498.49 L390.81,498.03 C391.486184,497.42352 392.045431,496.698193 392.46,495.89 C391.638342,496.557073 390.881637,497.300384 390.2,498.11 C389.82,498 390.45,497.11 390.54,496.97 L390.54,497.35 C392.18,496.47 392.22,495.17 393.97,493.73 C394.24,493.52 394.11,493.73 394.12,493.81 C395.12,492.19 396.98,491.56 397.79,489.81 L397.56,490.42 C398.28,489.42 399.64,487.42 400.97,485.42 L400.84,485.26 C400.57,485.36 401.18,484.72 401.56,484.44 L403.27,481.65 C402.923555,481.801461 402.605622,482.011161 402.33,482.27 C402.25,482.7 400.66,484.12 401.25,484.27 C400.37,484.78 399.52,486.2 398.85,486.56 C400.06,485.9 398.54,487.56 398.58,487.95 C398.02,488.01 397.17,489.34 396.98,488.88 C396.7,488.97 397.66,488.65 397.88,488.06 C398.59,486.78 395.77,489.54 396.74,488.06 C395.41,489.84 393.07,491.65 391.67,493.51 L392.75,492.8 C391.96,493.43 390.22,495.12 389.93,495.07 C390.46,494.52 391.13,493.94 391.79,493.22 C391.48,492.79 390.05,494.78 389.79,494.61 L388.26,497.14 L389.21,496.34 C388.84,497.1 386.63,498.5 385.21,499.78 C385.53,498.48 387.34,497.78 388.66,496.25 C389.57,495.07 387.52,496.33 388.44,495.25 C387.910661,495.5026 387.471065,495.910797 387.18,496.42 L386.68,496.68 C387.17,495.37 389.36,493.63 390.35,491.98 C390.282295,492.103402 390.241403,492.239707 390.23,492.38 C391.424378,491.627324 392.496751,490.696586 393.41,489.62 C392.962147,489.832588 392.594168,490.183044 392.36,490.62 C392.21,490.53 393.13,489.62 393.36,489.15 C392.28,489.86 392.93,489.03 392.25,489.48 C392.785623,488.831713 393.404273,488.256772 394.09,487.77 C394.65,487.6 394.01,488.32 394.3,488.48 C394.94,487.64 395.79,487.88 396.63,486.56 C395.09,487.85 396.53,485.68 396.87,485.06 L396.61,485.27 C396.8,484.56 397.18,484.18 397.74,484.13 C397.26,484.8 396.61,485.27 397.05,485.39 C397.452992,484.993776 397.827271,484.56937 398.17,484.12 L397.96,484.7 L398.9,483.7 L399.79,482.7 C399.871505,482.035824 399.871505,481.364176 399.79,480.7 C400.45,480.45 400.86,479.64 401.17,479.13 L401.09,479.42 C401.725104,478.979538 402.271337,478.423126 402.7,477.78 C403.054969,477.3565 403.298967,476.85132 403.41,476.31 C403.77,476.08 403.26,477.5 403.06,478.42 C402.86,479.34 402.99,479.73 404.69,477.35 C406.07,475.61 404.79,475.67 405.3,474.5 C405.3,474.5 405.3,474.62 405.46,474.56 C406.11,473.83 405.87,473.61 406.24,472.82 C405.794108,473.178406 405.435136,473.633103 405.19,474.15 C405.12,473.92 405.43,473.54 405.79,473.15 C406.157378,472.745503 406.448717,472.278006 406.65,471.77 C406.57,472.95 407.99,470.31 407.79,471.13 C409.057933,469.890169 409.940067,468.309968 410.33,466.58 C411.74,465.92 411.58,464.58 413.07,462.99 C412.846913,463.398834 412.592836,463.789978 412.31,464.16 C412.03,465.46 413.77,462.44 413.09,464.27 C413.25,463.89 412.89,464.1 412.72,464.49 C412.36,465.13 412.16,465.82 412.45,465.8 L413.8,464.57 L413.55,465.15 L414.55,464.15 L415.55,463.15 C415.55,463.04 415.26,463.15 415.14,463.26 C416.92038,460.700288 418.492109,458.001596 419.84,455.19 C419.34,454.65 419.94,453.13 420.58,451.44 C420.9,450.59 421.23,449.71 421.47,448.89 C421.681743,448.206911 421.786318,447.495127 421.78,446.78 C421.99,447.41 422.55,447.94 422.95,447.7 C422.987156,448.564013 422.85466,449.426935 422.56,450.24 C422.29,450.32 421.56,451.46 421.64,450.57 C420.64,453.38 422.36,450.43 422.51,451.44 C423.67,448.27 423.41,446.16 423.51,444.14 L423.68,444.14 C423.68,444.14 423.73,442.6 423.68,442.6 C423.53,443.19 423.22,443.43 423.07,443.34 C422.92,443.25 422.9,442.82 423.15,442.08 L423.15,442.28 C423.395229,441.696861 423.52757,441.072482 423.54,440.44 C423.54,439.7 423.54,438.9 423.61,438.19 L423.2,437.19 C423.27,435.78 424.12,435.71 424.63,435.19 C424.546078,433.400415 424.057134,431.653207 423.2,430.08 C423.53,429.31 422.99,425.95 423.76,427.64 C423.450262,426.916326 422.917795,426.310295 422.24,425.91 C421.71,425.44 421.37,424.78 421.4,423.04 L421.99,423.77 C421.736895,422.949514 421.419236,422.150351 421.04,421.38 C420.680275,420.602255 420.272832,419.847484 419.82,419.12 C419.4,418.44 418.96,417.88 418.65,417.36 C418.350896,417.018915 418.110922,416.630224 417.94,416.21 C418.33,416.21 418.48,415.99 418.46,415.62 C418.371525,415.16832 418.205759,414.735298 417.97,414.34 C417.46,413.34 416.63,412.4 416.68,411.77 C416.68,412.1 415.68,411.64 415.48,411.77 C415.258134,411.445689 414.8669,411.281371 414.48,411.35 C415.48,411.99 413.33,412.28 415.48,412.61 C414.807061,412.789682 414.121909,412.920028 413.43,413 C412.662707,413.079042 411.890923,413.105771 411.12,413.08 L411.12,412.55 L411.86,412.66 C412.23,412.76 412.59,412.83 412.59,412.85 C412.5,412.45 413.29,412.6 413.69,412.57 C412.23,412.02 412.36,411.83 412.49,411.57 C412.62,411.31 412.63,411.33 412.49,411.23 C412.042581,411.039125 411.553515,410.966799 411.07,411.02 C410.76,411.39 410.96,411.2 410.12,411.43 C410.51,411.35 410.57,410.98 409.9,411.07 L409.61,411.32 L409.34,411.59 C408.67,411.3 409.1,411.04 409.62,410.83 C410.14,410.62 410.69,410.5 410.12,410.26 C410.924384,409.968729 411.766188,409.793634 412.62,409.74 C413.42,409.65 414.02,409.61 413.85,409.2 C413.028478,408.874995 412.103237,408.945033 411.34,409.39 C410.613796,409.81113 409.79824,410.054426 408.96,410.1 L408.63,409.88 C407.78,410.31 407.8,410.79 407.46,411.23 C407.36,411.11 407.1,411.04 406.55,411.23 C405.549029,412.230935 404.700023,413.373051 404.03,414.62 C404.765894,413.753279 405.739163,413.120654 406.83,412.8 C407.816668,412.527771 408.785245,412.193779 409.73,411.8 C409.5,411.96 408.87,412.2 408.31,412.55 C407.75,412.9 407.31,413.4 407.41,413.76 L407.2,413.27 C406.287698,414.147553 405.300628,414.943901 404.25,415.65 L404.81,414.84 C403.44,416.34 401.57,416.51 400.92,418.41 C401.293732,418.078498 401.629156,417.706176 401.92,417.3 C401.552285,417.817934 401.144358,418.30611 400.7,418.76 C400.1,419.35 399.48,419.96 398.92,420.53 L397.66,422.53 L396.3,424.63 C396.2,424.36 394.22,426.38 395.03,424.94 C394.059851,425.684848 393.183472,426.544439 392.42,427.5 C391.75,428.32 391.17,429.14 390.51,429.81 C388.21,431.09 392.51,427.7 392.61,426.62 C391.32,427.62 390.05,428.76 388.82,429.9 L387,431.6 C386.953099,431.659064 386.890815,431.704047 386.82,431.73 L386.66,431.79 L386.35,431.92 C386.144175,432.007899 385.943814,432.108079 385.75,432.22 C385.577827,431.876816 385.38756,431.543013 385.18,431.22 C385.392028,431.841667 385.503431,432.493203 385.51,433.15 C385.44774,432.666059 385.323383,432.192157 385.14,431.74 C384.93,431.11 384.64,430.35 384.44,429.81 L384.22,429.71 L383.99,429.59 C383.44,427.39 383.67,427.44 384.35,428.53 C384.03986,427.708437 383.665364,426.912633 383.23,426.15 C382.740091,425.273088 382.401992,424.319648 382.23,423.33 C382.941297,424.66715 383.546491,426.058092 384.04,427.49 C384.404868,428.600909 384.842481,429.68659 385.35,430.74 C384.483968,428.674157 383.814347,426.53137 383.35,424.34 C383.121255,423.345088 382.827286,422.366306 382.47,421.41 C381.862864,420.263332 381.17094,419.163607 380.4,418.12 C380.5,417.96 381.32,418.75 380.69,417.63 C380.5,417.34 380.31,417.04 380.22,416.94 C380.142463,416.853593 380.05522,416.776417 379.96,416.71 C379.868896,416.628514 379.731104,416.628514 379.64,416.71 C379.48,416.85 379.38,417.15 379.06,416.98 C379.173864,417.117834 379.280668,417.261351 379.38,417.41 C379.445877,417.49594 379.506008,417.586136 379.56,417.68 L379.75,418 C379.972262,418.37344 380.162925,418.764802 380.32,419.17 C380.585547,419.922212 380.789552,420.694753 380.93,421.48 L380.4,421.12 C380.185915,420.37369 379.932223,419.639316 379.64,418.92 L378.97,418.92 C379.12,418.92 379.18,418.67 379.17,418.38 C379.154834,418.214996 379.128102,418.05126 379.09,417.89 C379.09,417.7 379.09,417.63 379.02,417.48 C378.893192,416.89346 378.617706,416.349376 378.22,415.9 C378.45,417.16 378.29,416.9 377.84,417.51 C376.45,416.46 377.42,415.59 375.84,414.42 C376.08,414.42 377.07,415.7 376.45,414.42 C375.84,413.42 375.5,413.85 374.94,413.31 C375.86,413.72 376.06,413.31 377.11,413.76 C377.627269,414.572746 378.205603,415.344973 378.84,416.07 C378.84,416.07 378.72,415.64 378.57,415.22 L378.29,414.37 C379.29,415.82 379.5,415.15 379.75,415.16 C378.53,412.29 377.86,413.64 376.85,411.96 C376.02,411.4 377.85,413.5 376.68,412.51 C375.68,410.98 376.18,412.35 374.8,410.85 L375.2,410.98 C375.07,410.3 374.39,410.04 373.92,409.51 C373.62,409.24 373.4,409.7 373,409.9 C372.6,410.1 372.05,410.06 371,408.9 C371.21,408.9 371.32,408.9 371.37,408.9 C371.42,408.9 372.7,408.78 374.06,408.72 C375.42,408.66 376.78,408.66 376.78,408.66 C374.526818,405.64703 372.102845,402.765641 369.52,400.03 C369.45,399.42 370.13,399.72 370.78,400.2 C371.43,400.68 372.11,401.26 372.16,401.03 L372.76,401.74 L373.31,402.47 C373.02,402.6 370.53,399.84 371.26,401.47 C373.72,403.55 374.32,404.94 376.83,406.84 C376.92,405.54 374.16,403.84 373.26,401.92 C373.740807,402.505705 374.295416,403.026702 374.91,403.47 C374.3,402.74 373.69,401.96 373.03,401.19 C372.37,400.42 371.66,399.64 370.89,398.87 L370.38,398.7 C371.003671,399.305068 371.591346,399.946167 372.14,400.62 C370.84,399.18 369.24,398.54 368.76,398.93 L369,399.16 L368.36,398.87 C368.13,398.4 367.8,398.12 367.48,397.82 Z M364.28,476.21 C364.170172,476.161092 364.049846,476.140465 363.93,476.15 C364.05,476.12 364.04,476.04 364.28,476.21 Z M389.82,421.81 C389.42,422.16 389.02,422.49 388.61,422.81 L388.31,423.03 L388.23,423.09 L388.23,422.98 L388.17,422.77 L387.92,421.95 C387.613165,420.93292 387.256059,419.93169 386.85,418.95 C387.12,420.57 387.45,422.27 387.58,423.54 C387.661819,424.092771 387.698606,424.651273 387.69,425.21 C387.69,425.48 387.52,425.43 387.24,425.06 C386.96,424.69 386.49,423.45 385.76,421.69 L385.48,421.32 C385.66,421.88 385.91,422.6 386.2,423.32 C386.49,424.04 386.8,424.82 387.12,425.59 L387.18,425.69 C387.289418,425.713788 387.396506,425.747253 387.5,425.79 L387.69,425.87 C387.69,425.87 387.75,425.87 387.78,425.87 L387.97,425.61 C388.492668,424.881259 388.973445,424.123368 389.41,423.34 C389.959702,422.448593 390.425051,421.507851 390.8,420.53 C390.52,420.3 390.17,421.22 389.68,421.53 L389.82,421.81 Z M391.1,423.49 C392.23,422.55 391.93,422.49 392.04,422 L390.94,423.26 C391.09,423.19 391.17,423.23 391.1,423.49 Z M391.93,421.76 C391.85936,421.854324 391.766648,421.929867 391.66,421.98 L391.93,421.76 Z M376.84,405.85 L376.94,405.95 L376.32,405.12 C376.462943,405.383611 376.637571,405.628762 376.84,405.85 Z M378.14,408.54 L378.71,408.54 L378.16,407.73 C378.025301,407.981562 378.01788,408.282097 378.14,408.54 Z M382.06,417.39 C382.84,417.73 383.93,419.8 384.41,419.31 C384.59,419.31 384.41,418.82 384.22,418.31 C384.03,417.8 383.71,417.31 383.43,416.69 C383.34,416.69 383.22,416.69 383.05,416.53 C383.29,417.14 383.37,417.65 382.95,417.68 C382.88,416.61 382.57,416.42 382.17,416.17 C381.77,415.92 381.34,415.81 381.02,415.05 C380.7,414.95 380.83,415.39 381.09,415.89 C381.35809,416.423634 381.68333,416.926581 382.06,417.39 Z M406.85,479.8 C406.78,479.8 406.57,479.8 406.3,479.9 L406.76,478.82 C408.11,477.32 409.9,476.61 410.32,474.62 C410.841082,474.187079 411.458314,473.885321 412.12,473.74 C411.88354,474.044318 411.629789,474.334797 411.36,474.61 C410.36,477.05 409.64,477.4 409.02,477.61 C408.4,477.82 407.84,477.93 406.85,479.8 Z M421.19,461.04 C421.15703,461.144119 421.15703,461.255881 421.19,461.36 C422.53,456.78 423.74,453.27 424.64,450.99 C424.04,451.27 422.9,453.15 422.28,453.99 L422.18,452.99 L422.79,452.64 L422.93,451.01 C422.45,451.28 422.06,452.47 421.45,453.12 C421.4066,453.641058 421.329775,454.158791 421.22,454.67 C421.057707,455.35635 420.930872,456.050603 420.84,456.75 L422.14,454.96 C421.752135,455.552602 421.417496,456.178378 421.14,456.83 C420.73,457.68 420.29,458.6 420.08,459.15 C420.29,459.3 421.61,457.72 421.22,457.23 C421.68,457.23 420.58,459.23 421.65,458.15 C420.977977,459.992716 419.95968,461.689878 418.65,463.15 L417.98,462.99 C417.03,464.05 418.14,464.22 416.92,465.43 C417.92,463.63 416.13,465.33 416.98,463.93 C416.49,464.24 416.39,463.57 415.55,464.93 C415.55,466.54 414.15,466.06 414.07,467.55 C413.36,468.11 414.16,466.5 413.07,467.83 C412.34,469.68 412.67,469.77 413.07,470.23 C414.26,468.83 413.57,468.09 414.53,466.94 L413.74,470 C414.085566,469.727749 414.371483,469.387372 414.58,469 C414.316898,469.471375 414.140759,469.986245 414.06,470.52 C414.06,470.8 413.98,471.04 413.93,471.27 C414.93,469.89 415.76,468.66 416.13,468.59 L416.26,468.95 C416.80703,468.504974 417.164493,467.86869 417.26,467.17 C418.07,465.88 418.53,464.38 419.04,464.31 L418.96,464.95 C419.91,463.26 420.01,463.12 421.19,461.04 Z M412.3,406.85 C412.581257,407.16803 412.878298,407.471746 413.19,407.76 C413.552273,408.114575 413.951176,408.429675 414.38,408.7 C415.38,409.35 416.8,410 418.86,411.44 L418.5,411.26 C419.362727,412.203863 420.306319,413.070496 421.32,413.85 C421.840365,414.318502 422.312703,414.837739 422.73,415.4 C423.160601,416.032861 423.475482,416.737112 423.66,417.48 C423.327633,417.069911 422.944574,416.703652 422.52,416.39 C422.035565,416.040063 421.507841,415.754353 420.95,415.54 L421.13,415.7 C421.27129,415.814903 421.398805,415.945774 421.51,416.09 C421.78,416.38 422.04,416.68 422.04,416.68 C421.3,416.62 422.39,417.76 422.81,418.86 L421.73,418.27 C421.62,417.58 420.79,416.05 420.67,416.19 C420.82,416.32 420.67,415.75 420.36,414.99 C420.28,414.8 420.19,414.6 420.09,414.4 C419.99,414.2 419.84,414.03 419.71,413.85 C419.466194,413.518154 419.184263,413.216086 418.87,412.95 C418.76,413.19 419.24,413.81 419.56,414.3 C419.71051,414.47589 419.795333,414.698551 419.8,414.93 C419.8,415.07 419.64,415.1 419.29,414.93 C419.630195,415.16443 419.897138,415.490309 420.06,415.87 C420.248966,416.24807 420.469762,416.609374 420.72,416.95 C419.85,416.13 420.02,417.05 419.26,416.58 L419.45,416.8 C419.593455,416.959276 419.723875,417.129825 419.84,417.31 L420.4,418.1 C420.34,418.16 419.91,417.6 419.54,417.25 C419.17,416.9 418.81,416.8 418.97,417.56 C419.328952,417.970626 419.640888,418.420082 419.9,418.9 C420.18,419.45 420.45,419.9 420.69,419.81 L420.57,419.92 C420.668744,420.304429 420.92712,420.628308 421.28,420.81 C421.5,420.94 421.72,421.13 421.91,422.05 C422.17,421.98 422.22,421.59 421.91,420.97 C421.6,420.35 421.25,420.53 420.7,419.55 C420.86,418.92 421.23,420.8 421.54,419.81 C421.61,419.56 421.22,418.9 420.94,418.36 C420.66,417.82 420.43,417.46 420.94,417.62 C420.94,417.62 421.11,417.95 421.26,418.3 C421.41,418.65 421.53,419.02 421.53,419.02 C422.02,418.82 422.48,419.86 422.86,419.66 C423.38,420.52 423.19,421.55 423.91,422.38 C424.35,422.68 424.75,421.78 424.98,423.49 C424.842761,424.611433 424.900274,425.748145 425.15,426.85 C425.37,428.15 425.61,429.47 425.76,430.2 C425.76,430.2 425.88,430.51 426.01,430.82 L426.23,431.44 C426.57,431.3 425.89,428.99 426.42,429.76 C426.42,429.76 426.52,430.27 426.61,430.76 L426.77,431.76 L426.55,431.63 C426.629463,432.292456 426.773481,432.945561 426.98,433.58 C426.6,432.97 426.59,431.5 426.08,431.84 C425.969878,432.500794 425.946346,433.173123 426.01,433.84 C425.96,433.65 425.9,433.49 425.82,433.52 C425.67,435.42 426.52,435.34 426.69,435.82 C427.05,436.82 427.21,436.31 427.36,435.59 C427.51,434.87 427.58,433.95 427.87,434.06 C427.87,434.06 428.02,435.51 428.07,436.96 C428.07,437.69 428.07,438.42 428.07,438.96 C428.07,439.5 428.07,439.87 428.07,439.87 C427.94,439.36 427.77,438.87 427.54,439.02 C427.2,440.41 427.13,439.02 426.97,441.02 C427.35,441.02 427.41,441.63 427.34,442.45 C427.27,443.27 427.15,444.28 427.19,445.01 C426.74,445.59 426.65,445.7 426.96,444.3 C426.43,444.36 426.24,446.3 425.96,446.9 C425.96,447.31 425.84,447.98 425.83,448.42 C426.21,447.94 426.48,448.28 426.25,449.53 L426.33,449.63 C426.75,448.68 427.25,447.44 427.67,446.27 C428.044292,445.316437 428.204733,444.292344 428.14,443.27 L428.32,443.68 C428.510818,443.082669 428.631627,442.465201 428.68,441.84 C428.68,441.2 428.68,440.57 428.68,439.99 C428.61,438.82 428.56,437.85 429.03,437.3 C429.4,437.41 429.12,436.81 429.65,436.86 C429.65,436.86 429.54,436.41 429.44,435.96 C429.34,435.51 429.23,435.06 429.23,435.06 L429.48,435.43 L429.36,433.91 C429.31,433.14 429.21,432.39 429.21,432.39 L429.32,432.46 C429.01,431.77 428.74,431.14 428.5,430.59 L427.77,429.15 C427.54,429.15 427.48,429.28 427.25,428.83 C427.115547,428.471605 427.021629,428.099288 426.97,427.72 C426.9,427 427.16,426.45 427.1,425.54 C427.1,425.54 427.15,425.71 427.2,425.97 L427.39,426.9 L427.67,428.26 C428.09,428.43 428.47,428.14 428.48,426.72 C428.59,427.27 428.94,427.46 428.85,426.72 C428.74,426.66 428.27,424.93 428.09,425.67 C427.895191,424.925105 427.738322,424.170801 427.62,423.41 C427.47,422.57 427.26,421.65 427.05,420.69 C426.591753,418.659409 425.686449,416.756563 424.4,415.12 C426.34,417.55 423.6,412.72 425.48,415.61 C424.8,413.18 423.91,414.12 422.48,412.14 C422.55,411.82 423.26,413.21 423.96,413.42 C423.690998,412.995544 423.400625,412.585016 423.09,412.19 C422.786841,411.8278 422.4522,411.493159 422.09,411.19 C421.758233,410.877728 421.403944,410.590286 421.03,410.33 L419.86,409.65 C419.078373,409.226461 418.266097,408.862107 417.43,408.56 C416.6,408.24 415.76,407.98 414.83,407.65 L414.83,407.14 C413.996596,406.970627 413.150113,406.873599 412.3,406.85 Z M404.84,408.85 C404.194031,409.215624 403.572701,409.623163 402.98,410.07 L403.17,409.96 C403.17,409.96 402.76,410.32 402.38,410.71 C402,411.1 401.63,411.49 401.63,411.49 C402.8,410.87 403.77,410.88 402.47,412.08 C402.47,411.83 401.9,411.93 402.34,411.48 C401.17,411.9 398.97,413.48 399.99,413.57 C401.3,411.57 400.99,413.92 402.05,412.41 C401.58,413.36 400.74,413.81 400.21,414.57 C400.65,413.65 399.43,414.02 398.26,414.9 C397.88,415.42 396.63,416.54 396.03,417.47 C396.32,417.47 396.34,417.73 396.46,417.8 C396.58,417.87 396.83,417.73 397.46,417.18 C396.91712,418.002575 396.241235,418.729151 395.46,419.33 C395.75,418.9 396.28,418.23 396.14,418.15 C395.520656,418.436146 394.933938,418.788176 394.39,419.2 L393.67,420.1 C393.750948,420.071803 393.839052,420.071803 393.92,420.1 L393.18,421.47 C394.3,419.96 393.82,421.09 393.9,421.39 C393.74,420.8 393.08,422.16 392.64,422.64 L393.19,422.47 L393.76,422.27 C393.508741,422.676384 393.166384,423.018741 392.76,423.27 C392.41,423.52 392.17,423.72 392.35,423.92 C394.141282,422.361844 395.766597,420.62259 397.2,418.73 L396.2,419.21 C396.515259,418.765749 396.884788,418.362627 397.3,418.01 C397.510153,417.843637 397.751601,417.721212 398.01,417.65 C398.761046,417.40257 399.431317,416.956875 399.95,416.36 C400.419016,415.663651 400.977081,415.031626 401.61,414.48 C402.25,413.86 402.78,413.33 402.61,413 C402.49,413.37 404.36,412.57 404.94,411.84 C405.372238,411.156129 405.966446,410.589399 406.67,410.19 C407.33,409.74 407.84,409.52 407.33,409.49 C406.5,409.75 405.64,410.57 404.82,410.49 C404.82,410.49 405.17,410.24 405.53,410.04 L406.04,409.74 L406.27,409.63 C406.27,409.63 405.09,409.73 405.09,409.73 C405.55,409.58 405.34,409.25 404.84,408.85 Z M385.48,408.99 L385.48,408.92 L385.48,408.99 Z" id="Shape"></path>
        </g>
    </g>
</svg>