<?xml version="1.0" encoding="UTF-8"?>
<svg width="238px" height="383px" viewBox="0 0 238 383" version="1.1" xmlns="http://www.w3.org/2000/svg" xmlns:xlink="http://www.w3.org/1999/xlink">
    <!-- Generator: Sketch 48.2 (47327) - http://www.bohemiancoding.com/sketch -->
    <title>Fill 4</title>
    <desc>Created with Sketch.</desc>
    <defs></defs>
    <g id="Page-1" stroke="none" stroke-width="1" fill="none" fill-rule="evenodd">
        <g id="climbing" fill="#000000">
            <path d="M170.043,57.124 L235.84,8.976 C237.453,7.8 238.113,5.722 237.504,3.831 C236.879,1.944 235.117,0.659 233.121,0.659 L20.609,0.659 C9.227,0.659 0,9.886 0,21.265 L0,376.499 C0,379.46 1.996,382.046 4.867,382.792 C7.723,383.534 10.738,382.245 12.172,379.659 L68.555,278.358 C70.359,275.124 71.691,271.651 72.531,268.034 L92.012,183.644 C93.738,176.151 97.629,169.323 103.18,163.999 L137.82,130.827 C143.793,125.116 147.805,117.675 149.332,109.554 L154.543,81.737 C156.383,71.862 161.926,63.058 170.043,57.124 Z" id="Fill-4"></path>
        </g>
    </g>
</svg>